<mxfile host="app.diagrams.net" modified="2023-08-05T16:25:00.543Z" agent="Mozilla/5.0 (X11; Linux x86_64) AppleWebKit/537.36 (KHTML, like Gecko) Chrome/115.0.0.0 Safari/537.36" etag="_rd0x8NTVXFLuWd5mG7I" version="21.6.6" type="google">
  <diagram name="Page-1" id="wTW-hEl39QRUmpcvvkM4">
    <mxGraphModel grid="1" page="1" gridSize="10" guides="1" tooltips="1" connect="1" arrows="1" fold="1" pageScale="1" pageWidth="827" pageHeight="1169" math="0" shadow="0">
      <root>
        <mxCell id="0" />
        <mxCell id="1" parent="0" />
        <mxCell id="q-SuUmUb_qlC8W2TQcC4-3" style="edgeStyle=orthogonalEdgeStyle;rounded=0;orthogonalLoop=1;jettySize=auto;html=1;entryX=0;entryY=0.5;entryDx=0;entryDy=0;entryPerimeter=0;" edge="1" parent="1" source="q-SuUmUb_qlC8W2TQcC4-1" target="q-SuUmUb_qlC8W2TQcC4-2">
          <mxGeometry relative="1" as="geometry">
            <Array as="points">
              <mxPoint x="240" y="339" />
              <mxPoint x="240" y="236" />
            </Array>
          </mxGeometry>
        </mxCell>
        <mxCell id="q-SuUmUb_qlC8W2TQcC4-14" style="edgeStyle=orthogonalEdgeStyle;rounded=0;orthogonalLoop=1;jettySize=auto;html=1;entryX=0;entryY=0.5;entryDx=0;entryDy=0;entryPerimeter=0;exitX=1;exitY=0.8;exitDx=0;exitDy=0;exitPerimeter=0;" edge="1" parent="1" source="q-SuUmUb_qlC8W2TQcC4-1" target="q-SuUmUb_qlC8W2TQcC4-13">
          <mxGeometry relative="1" as="geometry">
            <Array as="points">
              <mxPoint x="240" y="367" />
              <mxPoint x="240" y="466" />
            </Array>
          </mxGeometry>
        </mxCell>
        <mxCell id="q-SuUmUb_qlC8W2TQcC4-1" value="" style="outlineConnect=0;dashed=0;verticalLabelPosition=bottom;verticalAlign=top;align=center;html=1;shape=mxgraph.aws3.api_gateway;fillColor=#D9A741;gradientColor=none;" vertex="1" parent="1">
          <mxGeometry x="60" y="300" width="76.5" height="93" as="geometry" />
        </mxCell>
        <mxCell id="q-SuUmUb_qlC8W2TQcC4-17" style="edgeStyle=orthogonalEdgeStyle;rounded=0;orthogonalLoop=1;jettySize=auto;html=1;" edge="1" parent="1" source="q-SuUmUb_qlC8W2TQcC4-2" target="q-SuUmUb_qlC8W2TQcC4-4">
          <mxGeometry relative="1" as="geometry" />
        </mxCell>
        <mxCell id="q-SuUmUb_qlC8W2TQcC4-2" value="" style="outlineConnect=0;dashed=0;verticalLabelPosition=bottom;verticalAlign=top;align=center;html=1;shape=mxgraph.aws3.lambda_function;fillColor=#F58534;gradientColor=none;" vertex="1" parent="1">
          <mxGeometry x="400" y="200" width="69" height="72" as="geometry" />
        </mxCell>
        <mxCell id="q-SuUmUb_qlC8W2TQcC4-19" style="edgeStyle=orthogonalEdgeStyle;rounded=0;orthogonalLoop=1;jettySize=auto;html=1;entryX=1;entryY=0.5;entryDx=0;entryDy=0;entryPerimeter=0;" edge="1" parent="1" source="q-SuUmUb_qlC8W2TQcC4-4" target="q-SuUmUb_qlC8W2TQcC4-18">
          <mxGeometry relative="1" as="geometry">
            <Array as="points">
              <mxPoint x="760" y="339" />
              <mxPoint x="760" y="86" />
            </Array>
          </mxGeometry>
        </mxCell>
        <mxCell id="q-SuUmUb_qlC8W2TQcC4-4" value="DynamoDB" style="sketch=0;points=[[0,0,0],[0.25,0,0],[0.5,0,0],[0.75,0,0],[1,0,0],[0,1,0],[0.25,1,0],[0.5,1,0],[0.75,1,0],[1,1,0],[0,0.25,0],[0,0.5,0],[0,0.75,0],[1,0.25,0],[1,0.5,0],[1,0.75,0]];outlineConnect=0;fontColor=#232F3E;gradientColor=#4D72F3;gradientDirection=north;fillColor=#3334B9;strokeColor=#ffffff;dashed=0;verticalLabelPosition=bottom;verticalAlign=top;align=center;html=1;fontSize=12;fontStyle=0;aspect=fixed;shape=mxgraph.aws4.resourceIcon;resIcon=mxgraph.aws4.dynamodb;" vertex="1" parent="1">
          <mxGeometry x="649.5" y="270" width="78" height="78" as="geometry" />
        </mxCell>
        <mxCell id="q-SuUmUb_qlC8W2TQcC4-16" style="edgeStyle=orthogonalEdgeStyle;rounded=0;orthogonalLoop=1;jettySize=auto;html=1;entryX=0.5;entryY=1;entryDx=0;entryDy=0;entryPerimeter=0;" edge="1" parent="1" source="q-SuUmUb_qlC8W2TQcC4-10" target="q-SuUmUb_qlC8W2TQcC4-4">
          <mxGeometry relative="1" as="geometry" />
        </mxCell>
        <mxCell id="q-SuUmUb_qlC8W2TQcC4-10" value="AWS Lambda" style="outlineConnect=0;dashed=0;verticalLabelPosition=bottom;verticalAlign=top;align=center;html=1;shape=mxgraph.aws3.lambda_function;fillColor=#F58534;gradientColor=none;" vertex="1" parent="1">
          <mxGeometry x="654.5" y="430" width="69" height="72" as="geometry" />
        </mxCell>
        <mxCell id="q-SuUmUb_qlC8W2TQcC4-15" style="edgeStyle=orthogonalEdgeStyle;rounded=0;orthogonalLoop=1;jettySize=auto;html=1;" edge="1" parent="1" source="q-SuUmUb_qlC8W2TQcC4-13" target="q-SuUmUb_qlC8W2TQcC4-10">
          <mxGeometry relative="1" as="geometry" />
        </mxCell>
        <mxCell id="q-SuUmUb_qlC8W2TQcC4-13" value="" style="sketch=0;points=[[0,0,0],[0.25,0,0],[0.5,0,0],[0.75,0,0],[1,0,0],[0,1,0],[0.25,1,0],[0.5,1,0],[0.75,1,0],[1,1,0],[0,0.25,0],[0,0.5,0],[0,0.75,0],[1,0.25,0],[1,0.5,0],[1,0.75,0]];outlineConnect=0;fontColor=#232F3E;gradientColor=#FF4F8B;gradientDirection=north;fillColor=#BC1356;strokeColor=#ffffff;dashed=0;verticalLabelPosition=bottom;verticalAlign=top;align=center;html=1;fontSize=12;fontStyle=0;aspect=fixed;shape=mxgraph.aws4.resourceIcon;resIcon=mxgraph.aws4.sqs;" vertex="1" parent="1">
          <mxGeometry x="375" y="427" width="78" height="78" as="geometry" />
        </mxCell>
        <mxCell id="q-SuUmUb_qlC8W2TQcC4-24" style="edgeStyle=orthogonalEdgeStyle;rounded=0;orthogonalLoop=1;jettySize=auto;html=1;" edge="1" parent="1" source="q-SuUmUb_qlC8W2TQcC4-18" target="qHT6hviCEMwiXs6R6pHX-1">
          <mxGeometry relative="1" as="geometry">
            <mxPoint x="526.5" y="89" as="targetPoint" />
          </mxGeometry>
        </mxCell>
        <mxCell id="q-SuUmUb_qlC8W2TQcC4-18" value="" style="outlineConnect=0;dashed=0;verticalLabelPosition=bottom;verticalAlign=top;align=center;html=1;shape=mxgraph.aws3.lambda_function;fillColor=#F58534;gradientColor=none;" vertex="1" parent="1">
          <mxGeometry x="640" y="53" width="69" height="72" as="geometry" />
        </mxCell>
        <mxCell id="q-SuUmUb_qlC8W2TQcC4-22" value="Amazon Quicksight" style="sketch=0;points=[[0,0,0],[0.25,0,0],[0.5,0,0],[0.75,0,0],[1,0,0],[0,1,0],[0.25,1,0],[0.5,1,0],[0.75,1,0],[1,1,0],[0,0.25,0],[0,0.5,0],[0,0.75,0],[1,0.25,0],[1,0.5,0],[1,0.75,0]];outlineConnect=0;fontColor=#232F3E;gradientColor=#945DF2;gradientDirection=north;fillColor=#5A30B5;strokeColor=#ffffff;dashed=0;verticalLabelPosition=bottom;verticalAlign=top;align=center;html=1;fontSize=12;fontStyle=0;aspect=fixed;shape=mxgraph.aws4.resourceIcon;resIcon=mxgraph.aws4.quicksight;" vertex="1" parent="1">
          <mxGeometry x="241" y="50" width="78" height="78" as="geometry" />
        </mxCell>
        <mxCell id="q-SuUmUb_qlC8W2TQcC4-27" style="edgeStyle=orthogonalEdgeStyle;rounded=0;orthogonalLoop=1;jettySize=auto;html=1;" edge="1" parent="1" source="qHT6hviCEMwiXs6R6pHX-1" target="q-SuUmUb_qlC8W2TQcC4-22">
          <mxGeometry relative="1" as="geometry">
            <mxPoint x="280" y="89" as="sourcePoint" />
          </mxGeometry>
        </mxCell>
        <mxCell id="q-SuUmUb_qlC8W2TQcC4-29" style="edgeStyle=orthogonalEdgeStyle;rounded=0;orthogonalLoop=1;jettySize=auto;html=1;entryX=0;entryY=0.5;entryDx=0;entryDy=0;entryPerimeter=0;exitX=0.48;exitY=-0.015;exitDx=0;exitDy=0;exitPerimeter=0;" edge="1" parent="1" source="q-SuUmUb_qlC8W2TQcC4-28" target="q-SuUmUb_qlC8W2TQcC4-22">
          <mxGeometry relative="1" as="geometry">
            <Array as="points">
              <mxPoint x="-130" y="175" />
              <mxPoint x="-130" y="130" />
              <mxPoint x="67" y="130" />
              <mxPoint x="67" y="89" />
            </Array>
          </mxGeometry>
        </mxCell>
        <mxCell id="q-SuUmUb_qlC8W2TQcC4-30" style="edgeStyle=orthogonalEdgeStyle;rounded=0;orthogonalLoop=1;jettySize=auto;html=1;" edge="1" parent="1" source="q-SuUmUb_qlC8W2TQcC4-28" target="q-SuUmUb_qlC8W2TQcC4-1">
          <mxGeometry relative="1" as="geometry">
            <Array as="points">
              <mxPoint x="98" y="260" />
            </Array>
          </mxGeometry>
        </mxCell>
        <mxCell id="q-SuUmUb_qlC8W2TQcC4-28" value="" style="sketch=0;html=1;aspect=fixed;strokeColor=none;shadow=0;fillColor=#3B8DF1;verticalAlign=top;labelPosition=center;verticalLabelPosition=bottom;shape=mxgraph.gcp2.website" vertex="1" parent="1">
          <mxGeometry x="-177" y="176.5" width="100" height="97" as="geometry" />
        </mxCell>
        <mxCell id="q-SuUmUb_qlC8W2TQcC4-31" value="Fetching reports via Iframe" style="text;html=1;align=center;verticalAlign=middle;resizable=0;points=[];autosize=1;strokeColor=none;fillColor=none;" vertex="1" parent="1">
          <mxGeometry x="50" y="66" width="170" height="30" as="geometry" />
        </mxCell>
        <mxCell id="q-SuUmUb_qlC8W2TQcC4-32" value="GetQuestion" style="text;html=1;align=center;verticalAlign=middle;resizable=0;points=[];autosize=1;strokeColor=none;fillColor=none;" vertex="1" parent="1">
          <mxGeometry y="230" width="90" height="30" as="geometry" />
        </mxCell>
        <mxCell id="q-SuUmUb_qlC8W2TQcC4-33" value="GetQuestion" style="text;html=1;align=center;verticalAlign=middle;resizable=0;points=[];autosize=1;strokeColor=none;fillColor=none;" vertex="1" parent="1">
          <mxGeometry x="255" y="208" width="90" height="30" as="geometry" />
        </mxCell>
        <mxCell id="q-SuUmUb_qlC8W2TQcC4-34" value="WebSocketAPI" style="text;html=1;align=center;verticalAlign=middle;resizable=0;points=[];autosize=1;strokeColor=none;fillColor=none;" vertex="1" parent="1">
          <mxGeometry x="48.25" y="393" width="100" height="30" as="geometry" />
        </mxCell>
        <mxCell id="q-SuUmUb_qlC8W2TQcC4-39" value="Submit Answer queue" style="text;html=1;align=center;verticalAlign=middle;resizable=0;points=[];autosize=1;strokeColor=none;fillColor=none;" vertex="1" parent="1">
          <mxGeometry x="235" y="470" width="140" height="30" as="geometry" />
        </mxCell>
        <mxCell id="q-SuUmUb_qlC8W2TQcC4-40" value="Submit Answer" style="text;html=1;align=center;verticalAlign=middle;resizable=0;points=[];autosize=1;strokeColor=none;fillColor=none;" vertex="1" parent="1">
          <mxGeometry x="-80" y="270" width="100" height="30" as="geometry" />
        </mxCell>
        <mxCell id="q-SuUmUb_qlC8W2TQcC4-42" value="Calculate and Store Score" style="text;html=1;align=center;verticalAlign=middle;resizable=0;points=[];autosize=1;strokeColor=none;fillColor=none;" vertex="1" parent="1">
          <mxGeometry x="620" y="393" width="160" height="30" as="geometry" />
        </mxCell>
        <mxCell id="qHT6hviCEMwiXs6R6pHX-1" value="Amazon Athena" style="sketch=0;points=[[0,0,0],[0.25,0,0],[0.5,0,0],[0.75,0,0],[1,0,0],[0,1,0],[0.25,1,0],[0.5,1,0],[0.75,1,0],[1,1,0],[0,0.25,0],[0,0.5,0],[0,0.75,0],[1,0.25,0],[1,0.5,0],[1,0.75,0]];outlineConnect=0;fontColor=#232F3E;gradientColor=#945DF2;gradientDirection=north;fillColor=#5A30B5;strokeColor=#ffffff;dashed=0;verticalLabelPosition=bottom;verticalAlign=top;align=center;html=1;fontSize=12;fontStyle=0;aspect=fixed;shape=mxgraph.aws4.resourceIcon;resIcon=mxgraph.aws4.athena;" vertex="1" parent="1">
          <mxGeometry x="450" y="50" width="78" height="78" as="geometry" />
        </mxCell>
        <mxCell id="qHT6hviCEMwiXs6R6pHX-6" style="edgeStyle=orthogonalEdgeStyle;rounded=0;orthogonalLoop=1;jettySize=auto;html=1;" edge="1" parent="1" source="qHT6hviCEMwiXs6R6pHX-3" target="qHT6hviCEMwiXs6R6pHX-1">
          <mxGeometry relative="1" as="geometry" />
        </mxCell>
        <mxCell id="qHT6hviCEMwiXs6R6pHX-3" value="Amazon S3&amp;nbsp;&lt;br&gt;(Spill Data)" style="sketch=0;points=[[0,0,0],[0.25,0,0],[0.5,0,0],[0.75,0,0],[1,0,0],[0,1,0],[0.25,1,0],[0.5,1,0],[0.75,1,0],[1,1,0],[0,0.25,0],[0,0.5,0],[0,0.75,0],[1,0.25,0],[1,0.5,0],[1,0.75,0]];outlineConnect=0;fontColor=#232F3E;gradientColor=#60A337;gradientDirection=north;fillColor=#277116;strokeColor=#ffffff;dashed=0;verticalLabelPosition=bottom;verticalAlign=top;align=center;html=1;fontSize=12;fontStyle=0;aspect=fixed;shape=mxgraph.aws4.resourceIcon;resIcon=mxgraph.aws4.s3;" vertex="1" parent="1">
          <mxGeometry x="380" y="-120" width="78" height="78" as="geometry" />
        </mxCell>
        <mxCell id="qHT6hviCEMwiXs6R6pHX-5" style="edgeStyle=orthogonalEdgeStyle;rounded=0;orthogonalLoop=1;jettySize=auto;html=1;" edge="1" parent="1" source="qHT6hviCEMwiXs6R6pHX-4" target="qHT6hviCEMwiXs6R6pHX-1">
          <mxGeometry relative="1" as="geometry" />
        </mxCell>
        <mxCell id="qHT6hviCEMwiXs6R6pHX-4" value="Amazon S3&lt;br&gt;(Result Data)" style="sketch=0;points=[[0,0,0],[0.25,0,0],[0.5,0,0],[0.75,0,0],[1,0,0],[0,1,0],[0.25,1,0],[0.5,1,0],[0.75,1,0],[1,1,0],[0,0.25,0],[0,0.5,0],[0,0.75,0],[1,0.25,0],[1,0.5,0],[1,0.75,0]];outlineConnect=0;fontColor=#232F3E;gradientColor=#60A337;gradientDirection=north;fillColor=#277116;strokeColor=#ffffff;dashed=0;verticalLabelPosition=bottom;verticalAlign=top;align=center;html=1;fontSize=12;fontStyle=0;aspect=fixed;shape=mxgraph.aws4.resourceIcon;resIcon=mxgraph.aws4.s3;" vertex="1" parent="1">
          <mxGeometry x="520" y="-120" width="78" height="78" as="geometry" />
        </mxCell>
      </root>
    </mxGraphModel>
  </diagram>
</mxfile>
